<?xml version="1.0" encoding="UTF-8"?>
<svg id="Layer_2" data-name="Layer 2" xmlns="http://www.w3.org/2000/svg" version="1.1" viewBox="0 0 594.9 909">
  <defs>
    <style>
      .cls-1 {
        fill: #ac966f;
        stroke-width: 0px;
      }
    </style>
  </defs>
  <g id="Layer_1-2" data-name="Layer 1-2">
    <g id="Absher_Ind" data-name="Absher Ind">
      <g>
        <path class="cls-1" d="M489.1,838.5c0-19.3-15.6-34.9-34.9-34.9s-34.9,15.6-34.9,34.9,15.6,34.9,34.9,34.9,34.9-15.6,34.9-34.9"/>
        <path class="cls-1" d="M384.9,209.2c0-19.3-15.7-35-35-35s-35,15.7-35,35,15.7,35,35,35,35-15.7,35-35"/>
        <path class="cls-1" d="M279.9,209.2c0-19.3-15.7-35-35-35s-35,15.7-35,35,15.7,35,35,35,35-15.7,35-35"/>
        <path class="cls-1" d="M175,209.2c0-19.3-15.7-35-35-35s-35,15.7-35,35,15.7,35,35,35,35-15.7,35-35"/>
        <path class="cls-1" d="M524.9,70c0-38.7,31.3-70,70-70v70h-70Z"/>
        <path class="cls-1" d="M130.5,279.2c-.2,0-.3,0-.5,0-13.8.3-24.9,11.2-25,24.6v465.2h44.5c.2,0,.3,0,.5,0,13.8-.3,24.9-11.2,25-24.6v-465.2h-44.5Z"/>
        <path class="cls-1" d="M235.4,279.2c-.2,0-.3,0-.5,0-13.8.3-24.9,11.2-25,24.6v465.2h44.5c.2,0,.3,0,.5,0,13.8-.3,24.9-11.2,25-24.6v-465.2h-44.5Z"/>
        <path class="cls-1" d="M340.4,279.2c-.2,0-.3,0-.5,0-13.8.3-24.9,11.2-25,24.6v465.2h44.5c.2,0,.3,0,.5,0,13.8-.3,24.9-11.2,25-24.6v-465.2h-44.5Z"/>
        <path class="cls-1" d="M445.4,174.2c-.2,0-.3,0-.5,0-13.6.3-24.5,11.4-25,25.3,0,.3,0,.5,0,.8v568.7h44.5c.2,0,.3,0,.5,0,13.6-.3,24.5-11.4,25-25.3,0-.3,0-.5,0-.8V174.2h-44.5Z"/>
        <path class="cls-1" d="M550.4,104.9c-.2,0-.3,0-.5,0-13.5.3-24.5,11.4-25,25.3,0,.3,0,.6,0,.9v637.9h44.5c.2,0,.3,0,.5,0,13.5-.3,24.5-11.4,25-25.3,0-.3,0-.6,0-.9V104.9h-44.5Z"/>
        <path class="cls-1" d="M25.5,279.2c-.2,0-.3,0-.5,0h0c-13.6.3-24.5,11.4-25,25.2h0c0,.3,0,.5,0,.8v603.8h44.5c.2,0,.3,0,.5,0h0c13.6-.3,24.6-11.4,25-25.2h0c0-.3,0-.5,0-.8V279.2H25.5Z"/>
      </g>
    </g>
  </g>
</svg>