<svg width="25" height="24" viewBox="0 0 25 24" fill="none" xmlns="http://www.w3.org/2000/svg">
    <path d="M22.6316 12C22.6316 13.3132 22.3729 14.6136 21.8704 15.8268C21.3678 17.0401 20.6312 18.1425 19.7027 19.0711C18.7741 19.9997 17.6717 20.7362 16.4584 21.2388C15.2452 21.7413 13.9448 22 12.6316 22C11.3184 22 10.018 21.7413 8.80476 21.2388C7.5915 20.7362 6.48911 19.9997 5.56052 19.0711C4.63194 18.1425 3.89534 17.0401 3.3928 15.8268C2.89025 14.6136 2.63159 13.3132 2.63159 12C2.63159 10.6868 2.89025 9.38642 3.3928 8.17316C3.89534 6.95991 4.63194 5.85752 5.56052 4.92893C6.48911 4.00035 7.5915 3.26375 8.80476 2.7612C10.018 2.25866 11.3184 2 12.6316 2C13.9448 2 15.2452 2.25866 16.4584 2.76121C17.6717 3.26375 18.7741 4.00035 19.7027 4.92893C20.6312 5.85752 21.3678 6.95991 21.8704 8.17317C22.3729 9.38642 22.6316 10.6868 22.6316 12L22.6316 12Z" stroke="#008550" stroke-width="2"/>
    <path d="M16.6316 12C16.6316 13.3132 16.5281 14.6136 16.3271 15.8268C16.1261 17.0401 15.8315 18.1425 15.46 19.0711C15.0886 19.9997 14.6476 20.7362 14.1623 21.2388C13.677 21.7413 13.1569 22 12.6316 22C12.1063 22 11.5862 21.7413 11.1009 21.2388C10.6156 20.7362 10.1746 19.9997 9.80316 19.0711C9.43173 18.1425 9.13709 17.0401 8.93607 15.8268C8.73505 14.6136 8.63159 13.3132 8.63159 12C8.63159 10.6868 8.73505 9.38642 8.93607 8.17316C9.13709 6.95991 9.43173 5.85752 9.80316 4.92893C10.1746 4.00035 10.6156 3.26375 11.1009 2.7612C11.5862 2.25866 12.1063 2 12.6316 2C13.1569 2 13.677 2.25866 14.1623 2.76121C14.6476 3.26375 15.0886 4.00035 15.46 4.92893C15.8315 5.85752 16.1261 6.95991 16.3271 8.17317C16.5281 9.38642 16.6316 10.6868 16.6316 12L16.6316 12Z" stroke="#008550" stroke-width="2"/>
    <path d="M2.63159 12H22.6316" stroke="#008550" stroke-width="2" stroke-linecap="round"/>
</svg>